<svg width="512" height="512" viewBox="0 0 512 512" fill="none" xmlns="http://www.w3.org/2000/svg">
  <!-- Hippo app icon with dark app-canvas baked in. Source for every
       rasterised home-screen icon. Companion to hippo-mark.svg (which is
       transparent for inline use inside the app). -->
  <defs>
    <linearGradient id="bg" x1="0" y1="0" x2="512" y2="512" gradientUnits="userSpaceOnUse">
      <stop stop-color="#0A1420"/>
      <stop offset="1" stop-color="#060D13"/>
    </linearGradient>
    <linearGradient id="mark" x1="64" y1="32" x2="448" y2="480" gradientUnits="userSpaceOnUse">
      <stop stop-color="#22D3EE"/>
      <stop offset="1" stop-color="#0EA5E9"/>
    </linearGradient>
    <radialGradient id="glow" cx="256" cy="256" r="220" gradientUnits="userSpaceOnUse">
      <stop stop-color="#0EA5E9" stop-opacity="0.18"/>
      <stop offset="0.6" stop-color="#0EA5E9" stop-opacity="0.05"/>
      <stop offset="1" stop-color="#0EA5E9" stop-opacity="0"/>
    </radialGradient>
  </defs>
  <rect x="0" y="0" width="512" height="512" fill="url(#bg)"/>
  <circle cx="256" cy="256" r="220" fill="url(#glow)"/>
  <g transform="translate(96 96) scale(5)">
    <ellipse cx="17" cy="12" rx="7" ry="10" fill="url(#mark)" opacity="0.85" transform="rotate(-6 17 12)"/>
    <ellipse cx="47" cy="12" rx="7" ry="10" fill="url(#mark)" opacity="0.85" transform="rotate(6 47 12)"/>
    <ellipse cx="17" cy="13" rx="4" ry="6" fill="#0B1120" opacity="0.35" transform="rotate(-6 17 13)"/>
    <ellipse cx="47" cy="13" rx="4" ry="6" fill="#0B1120" opacity="0.35" transform="rotate(6 47 13)"/>
    <path d="M12 28C12 18 20 10 32 10C44 10 52 18 52 28V35C55 35 59 39 59 44C59 49 55 52 52 52V54C52 62 44 64 32 64C20 64 12 62 12 54V52C9 52 5 49 5 44C5 39 9 35 12 35Z" fill="url(#mark)"/>
    <ellipse cx="24" cy="31" rx="4" ry="4.5" fill="#0B1120"/>
    <ellipse cx="40" cy="31" rx="4" ry="4.5" fill="#0B1120"/>
    <circle cx="25.5" cy="29.5" r="1.8" fill="white" opacity="0.65"/>
    <circle cx="41.5" cy="29.5" r="1.8" fill="white" opacity="0.65"/>
    <ellipse cx="32" cy="46" rx="11" ry="7" fill="url(#mark)" opacity="0.12"/>
    <ellipse cx="27" cy="45" rx="2.8" ry="2.2" fill="#0B1120" opacity="0.4"/>
    <ellipse cx="37" cy="45" rx="2.8" ry="2.2" fill="#0B1120" opacity="0.4"/>
  </g>
</svg>
